<?xml version="1.0" encoding="utf-8"?>
<!-- Generator: Adobe Illustrator 15.1.0, SVG Export Plug-In  -->
<!DOCTYPE svg PUBLIC "-//W3C//DTD SVG 1.1//EN" "http://www.w3.org/Graphics/SVG/1.1/DTD/svg11.dtd" [
	<!ENTITY ns_flows "http://ns.adobe.com/Flows/1.0/">
]>
<svg version="1.1"
	 xmlns="http://www.w3.org/2000/svg" xmlns:xlink="http://www.w3.org/1999/xlink" xmlns:a="http://ns.adobe.com/AdobeSVGViewerExtensions/3.0/"
	 x="0px" y="0px" width="100px" height="200px" viewBox="-9.103 -2.411 100 200"
	 overflow="visible" enable-background="new -9.103 -2.411 100 200" xml:space="preserve">
<defs>
</defs>
<polygon fill="#90AA5A" points="17.819,0 17.819,45.882 63.69,45.882 63.69,0 17.819,0 "/>
<polygon fill="#D5802B" points="35.158,34.966 35.158,80.849 81.029,80.849 81.029,34.966 35.158,34.966 "/>
<polygon fill="#984739" points="0,57.591 0,103.474 45.872,103.474 45.872,57.591 0,57.591 "/>
<polygon fill="#3E1E2A" points="17.955,149.578 17.955,195.465 63.826,195.465 63.826,149.578 17.955,149.578 "/>
<polygon fill="#58593E" points="0.35,115.031 0.35,160.913 46.229,160.913 46.229,115.031 0.35,115.031 "/>
<polygon fill="#367D96" points="35.158,92.238 35.158,138.12 81.029,138.12 81.029,92.238 35.158,92.238 "/>
</svg>
