<?xml version="1.0" encoding="utf-8"?>
<!-- Generator: Adobe Illustrator 15.1.0, SVG Export Plug-In  -->
<!DOCTYPE svg PUBLIC "-//W3C//DTD SVG 1.1//EN" "http://www.w3.org/Graphics/SVG/1.1/DTD/svg11.dtd" [
	<!ENTITY ns_flows "http://ns.adobe.com/Flows/1.0/">
]>
<svg version="1.1"
	 xmlns="http://www.w3.org/2000/svg" xmlns:xlink="http://www.w3.org/1999/xlink" xmlns:a="http://ns.adobe.com/AdobeSVGViewerExtensions/3.0/"
	 x="0px" y="0px" width="200px" height="80px" viewBox="-3.932 -3.022 200 80"
	 overflow="visible" enable-background="new -3.932 -3.022 200 80" xml:space="preserve">
<defs>
</defs>
<path fill="#FFFFFF" d="M6.535,45.815c0,7.328-0.14,8.306-4.188,8.725l-2.094,0.21c-0.419,0.419-0.279,1.535,0.14,1.744
	c3.909-0.139,6.143-0.209,9.074-0.209h6.422c7.19,0,13.821,0.07,17.38,0.209c0.977-1.884,2.932-9.004,2.932-9.771
	c0-0.489-1.326-0.768-1.745-0.419c-1.396,3.56-3.211,6.073-4.607,6.91c-1.117,0.628-2.583,0.907-8.516,0.907
	c-5.514,0-6.84-0.838-7.608-1.605c-1.256-1.326-1.466-3.141-1.466-7.538V20.687c0-7.329,0.14-8.446,4.258-8.795l1.676-0.14
	c0.418-0.279,0.279-1.536-0.14-1.745c-3.489,0.14-5.863,0.209-8.585,0.209c-2.792,0-5.165-0.069-9.074-0.209
	c-0.419,0.209-0.559,1.466-0.14,1.745l1.745,0.14c4.397,0.349,4.537,1.466,4.537,8.795V45.815L6.535,45.815z M41.993,48.468
	c0,5.025-0.07,5.724-2.653,6.072l-1.465,0.21c-0.489,0.349-0.349,1.535,0.14,1.744c1.954-0.139,4.048-0.209,6.561-0.209
	c2.443,0,4.467,0.07,6.562,0.209c0.488-0.209,0.628-1.396,0.139-1.744l-1.465-0.21c-2.513-0.349-2.652-1.047-2.652-6.072V35.904
	c0-2.862,0.139-6.213,0.279-8.655c-0.07-0.28-0.349-0.419-0.698-0.419c-1.606,1.046-5.584,2.861-7.189,3.42
	c-0.349,0.209-0.349,0.977-0.07,1.256l0.628,0.419c1.885,1.256,1.885,1.605,1.885,4.328V48.468L41.993,48.468z M56.231,50.212
	c0,3.63-0.069,4.957-0.14,5.934c0.14,0.279,0.419,0.419,0.699,0.419c0.139,0,0.209,0,0.279-0.07
	c0.349-0.488,0.908-1.047,1.466-1.047s1.466,0.419,2.931,0.908c1.396,0.419,3.351,0.906,5.934,0.906
	c9.353,0,16.054-6.49,16.054-15.773c0-7.679-5.375-13.682-13.332-13.682c-3.42,0-6.212,1.256-8.027,2.303
	c-0.418,0-0.698-0.279-0.698-1.466V15.452c0-3.071,0.14-6.211,0.28-8.655c-0.14-0.28-0.419-0.419-0.698-0.419
	c-2.652,1.396-6.003,2.303-7.608,2.931c-0.349,0.21-0.349,1.187,0,1.396l0.698,0.418c2.094,1.256,2.164,1.676,2.164,5.793V50.212
	L56.231,50.212z M61.396,35.904c0-2.723,0.14-3.49,0.838-3.979c0.977-0.628,2.652-1.117,4.746-1.117
	c6.91,0,10.609,5.584,10.609,12.773c0,6.004-2.583,11.588-9.144,11.588c-2.233,0-4.118-0.838-5.304-2.304s-1.746-3.63-1.746-6.073
	V35.904L61.396,35.904z M90.016,48.468c0,5.025-0.07,5.653-2.653,6.072l-1.326,0.21c-0.489,0.349-0.349,1.535,0.139,1.744
	c1.815-0.139,3.909-0.209,6.422-0.209c2.443,0,4.467,0.07,7.748,0.209c0.488-0.209,0.628-1.396,0.14-1.744l-2.513-0.21
	c-2.652-0.209-2.792-1.047-2.792-6.072v-9.493c0-2.373,0.209-4.397,0.907-5.375c0.559-0.768,1.396-1.396,2.513-1.396
	c0.978,0,2.024,0.419,3.071,1.117c0.489,0.279,0.838,0.488,1.535,0.488c1.117,0,3.002-0.907,3.002-3.21
	c0-1.676-1.396-2.792-3.141-2.792c-2.583,0-5.235,2.164-7.679,4.188c-0.14-0.07-0.209-0.279-0.209-0.628v-4.049
	c0-0.279-0.21-0.418-0.559-0.488c-1.745,1.046-5.444,2.861-7.049,3.42c-0.349,0.209-0.349,0.977-0.07,1.256l0.628,0.419
	c1.885,1.256,1.885,1.605,1.885,4.328V48.468L90.016,48.468z M114.165,44.838c-4.467,1.605-5.794,3.211-5.794,5.934
	c0,1.954,0.839,3.698,2.164,4.885c1.187,1.048,2.862,1.605,4.887,1.605c1.954,0,3.49-0.906,5.025-1.744
	c1.396-0.768,2.233-1.396,2.723-1.396c0.418,0,0.837,0.559,1.116,0.978c1.187,1.535,2.862,2.163,4.537,2.163
	c3.421,0,5.863-2.722,5.863-3.07c0-0.489-0.209-0.908-0.488-0.908c-0.21,0-0.56,0.28-0.907,0.489
	c-0.419,0.21-1.047,0.419-1.746,0.419c-2.722,0-3.35-2.862-3.21-6.073l0.418-12.145c0.21-5.235-2.233-8.167-7.259-8.167
	c-5.096,0-12.982,4.956-12.982,8.586c0,0.627,0.349,0.976,0.977,0.976c1.047,0,2.932-0.488,3.979-1.325
	c0.558-0.419,0.628-1.256,0.697-2.373c0.14-2.164,2.513-3.141,4.468-3.141c4.327,0,5.165,3.489,5.095,6.073l-0.069,3.211
	c0,1.047-0.14,1.676-1.187,2.024L114.165,44.838L114.165,44.838z M113.746,49.934c0-2.723,2.024-3.77,6.144-5.165
	c1.256-0.42,2.442-0.698,2.86-0.698c0.42,0,0.698,0.14,0.698,0.907l-0.14,4.118c-0.069,1.466-0.069,2.443-0.907,3.281
	c-0.697,0.697-2.861,1.744-4.258,1.744C114.583,54.121,113.746,51.12,113.746,49.934L113.746,49.934z M140.758,48.468
	c0,5.025-0.07,5.653-2.652,6.072l-1.326,0.21c-0.488,0.349-0.35,1.535,0.14,1.744c1.814-0.139,3.908-0.209,6.421-0.209
	c2.443,0,4.468,0.07,7.748,0.209c0.488-0.209,0.629-1.396,0.14-1.744l-2.513-0.21c-2.652-0.209-2.792-1.047-2.792-6.072v-9.493
	c0-2.373,0.209-4.397,0.907-5.375c0.559-0.768,1.396-1.396,2.513-1.396c0.979,0,2.024,0.419,3.071,1.117
	c0.489,0.279,0.838,0.488,1.536,0.488c1.116,0,3.001-0.907,3.001-3.21c0-1.676-1.396-2.792-3.142-2.792
	c-2.582,0-5.234,2.164-7.678,4.188c-0.139-0.07-0.209-0.279-0.209-0.628v-4.049c0-0.279-0.21-0.418-0.559-0.488
	c-1.745,1.046-5.444,2.861-7.05,3.42c-0.349,0.209-0.349,0.977-0.069,1.256l0.628,0.419c1.885,1.256,1.885,1.605,1.885,4.328V48.468
	L140.758,48.468z M163.092,73.665c1.605,0,3.281-0.628,4.468-3.28c3.42-7.608,9.144-19.753,11.447-24.43l3.908-8.027
	c2.373-4.956,3.63-6.98,5.934-7.399l1.187-0.209c0.488-0.419,0.419-1.466-0.14-1.745c-1.954,0.14-3.56,0.209-5.305,0.209
	c-1.814,0-3.909-0.069-6.143-0.209c-0.559,0.209-0.628,1.396-0.14,1.745l2.164,0.349c1.256,0.209,1.675,0.698,1.675,1.187
	c0,0.768-0.907,3.35-2.443,6.98l-2.373,5.514c-1.256,2.862-2.373,5.026-2.582,5.166c-0.279-0.14-1.605-3.839-2.024-4.956
	l-2.233-6.421c-0.419-1.187-2.024-5.724-2.024-6.562c0-0.488,0.559-0.698,1.535-0.907l1.745-0.349
	c0.488-0.349,0.419-1.536-0.14-1.745c-2.233,0.14-4.188,0.209-6.072,0.209c-2.304,0-4.397-0.069-6.631-0.209
	c-0.559,0.209-0.628,1.396-0.209,1.745l1.744,0.349c2.443,0.489,2.932,2.164,4.118,5.444l5.444,14.937
	c0.908,2.583,1.187,3.42,1.187,4.816c0,0.977-0.488,2.442-0.697,3.001c-0.628,1.676-2.024,4.607-4.049,7.749
	c-0.488,0.767-1.187,1.256-2.304,1.256h-1.325c-1.536,0-2.792,0.907-2.792,2.792C160.022,72.409,161.069,73.665,163.092,73.665
	L163.092,73.665z"/>
<path fill="#FFFFFF" d="M67.416,19.611h1.112v-4.036h1.541V14.55h-4.193v1.026h1.541V19.611L67.416,19.611z M71.338,19.611h1.113
	v-2.032h2.055v2.032h1.113V14.55h-1.113v2.003h-2.055V14.55h-1.113V19.611L71.338,19.611z M77.373,19.611h3.854v-0.99h-2.748v-1.064
	h2.387v-0.99h-2.387V15.54h2.712v-0.99h-3.817V19.611L77.373,19.611z M87.439,19.691c1.36,0,2.22-0.751,2.22-2.285V14.55h-1.113v2.9
	c0,0.803-0.413,1.215-1.092,1.215c-0.68,0-1.092-0.427-1.092-1.251V14.55h-1.113v2.893C85.249,18.933,86.08,19.691,87.439,19.691
	L87.439,19.691z M91.357,19.611h1.098v-3.217l2.453,3.217h0.946V14.55h-1.098v3.116l-2.374-3.116h-1.026V19.611L91.357,19.611z
	 M97.632,19.611h1.112V14.55h-1.112V19.611L97.632,19.611z M102.039,19.647h0.983l2.047-5.098h-1.2l-1.324,3.565l-1.322-3.565
	h-1.229L102.039,19.647L102.039,19.647z M106.305,19.611h3.854v-0.99h-2.748v-1.064h2.386v-0.99h-2.386V15.54h2.712v-0.99h-3.817
	V19.611L106.305,19.611z M111.72,19.611h1.112v-1.62h0.876l1.085,1.62h1.301l-1.235-1.808c0.643-0.239,1.084-0.752,1.084-1.569
	V16.22c0-0.477-0.152-0.875-0.434-1.157c-0.333-0.332-0.831-0.513-1.476-0.513h-2.313V19.611L111.72,19.611z M112.833,17.009v-1.455
	h1.107c0.543,0,0.875,0.247,0.875,0.724v0.015c0,0.427-0.311,0.716-0.854,0.716H112.833L112.833,17.009z M119.224,19.684
	c1.092,0,1.857-0.563,1.857-1.568v-0.015c0-0.883-0.578-1.251-1.604-1.519c-0.876-0.224-1.093-0.333-1.093-0.666v-0.014
	c0-0.246,0.225-0.442,0.651-0.442s0.868,0.188,1.316,0.5l0.578-0.839c-0.513-0.412-1.142-0.643-1.88-0.643
	c-1.034,0-1.771,0.607-1.771,1.525v0.015c0,1.005,0.658,1.287,1.677,1.548c0.848,0.217,1.021,0.362,1.021,0.644v0.015
	c0,0.296-0.274,0.478-0.73,0.478c-0.579,0-1.057-0.239-1.512-0.615l-0.657,0.788C117.683,19.417,118.457,19.684,119.224,19.684
	L119.224,19.684z M122.59,19.611h1.113V14.55h-1.113V19.611L122.59,19.611z M126.527,19.611h1.113v-4.036h1.54V14.55h-4.193v1.026
	h1.54V19.611L126.527,19.611z M132.136,19.611h1.113v-2.018l1.945-3.044h-1.266l-1.229,2.032l-1.208-2.032h-1.302l1.945,3.066
	V19.611L132.136,19.611z M141.458,19.698c1.562,0,2.698-1.178,2.698-2.618v-0.015c0-1.44-1.121-2.603-2.684-2.603
	s-2.697,1.178-2.697,2.618v0.015C138.775,18.535,139.896,19.698,141.458,19.698L141.458,19.698z M141.472,18.672
	c-0.896,0-1.533-0.723-1.533-1.591v-0.015c0-0.868,0.622-1.577,1.519-1.577c0.897,0,1.534,0.724,1.534,1.591v0.015
	C142.992,17.963,142.37,18.672,141.472,18.672L141.472,18.672z M145.641,19.611h1.113v-1.96h2.415V16.64h-2.415v-1.078h2.741V14.55
	h-3.854V19.611L145.641,19.611z M155.867,19.698c0.976,0,1.555-0.347,2.076-0.903l-0.71-0.716c-0.397,0.362-0.752,0.593-1.33,0.593
	c-0.868,0-1.468-0.723-1.468-1.591v-0.015c0-0.868,0.614-1.577,1.468-1.577c0.507,0,0.904,0.217,1.295,0.572l0.708-0.817
	c-0.47-0.462-1.042-0.781-1.995-0.781c-1.555,0-2.639,1.178-2.639,2.618v0.015C153.272,18.549,154.377,19.698,155.867,19.698
	L155.867,19.698z M159.27,19.611h1.113v-2.032h2.055v2.032h1.112V14.55h-1.112v2.003h-2.055V14.55h-1.113V19.611L159.27,19.611z
	 M165.329,19.611h1.112V14.55h-1.112V19.611L165.329,19.611z M170.545,19.698c0.977,0,1.556-0.347,2.076-0.903l-0.709-0.716
	c-0.397,0.362-0.753,0.593-1.331,0.593c-0.868,0-1.468-0.723-1.468-1.591v-0.015c0-0.868,0.615-1.577,1.468-1.577
	c0.506,0,0.904,0.217,1.295,0.572l0.708-0.817c-0.47-0.462-1.041-0.781-1.995-0.781c-1.556,0-2.64,1.178-2.64,2.618v0.015
	C167.95,18.549,169.055,19.698,170.545,19.698L170.545,19.698z M173.543,19.611h1.136l0.462-1.135h2.141l0.464,1.135h1.163
	l-2.169-5.098h-1.026L173.543,19.611L173.543,19.611z M175.539,17.493l0.673-1.642l0.673,1.642H175.539L175.539,17.493z
	 M182.309,19.698c0.927,0,1.643-0.361,2.162-0.802v-2.198h-2.197v0.961h1.121v0.724c-0.282,0.203-0.644,0.304-1.049,0.304
	c-0.897,0-1.534-0.681-1.534-1.606v-0.014c0-0.861,0.645-1.577,1.454-1.577c0.587,0,0.934,0.188,1.324,0.514l0.7-0.846
	c-0.527-0.448-1.076-0.694-1.987-0.694c-1.534,0-2.654,1.178-2.654,2.618v0.015C179.649,18.593,180.733,19.698,182.309,19.698
	L182.309,19.698z M188.502,19.698c1.562,0,2.697-1.178,2.697-2.618v-0.015c0-1.44-1.12-2.603-2.683-2.603s-2.697,1.178-2.697,2.618
	v0.015C185.82,18.535,186.94,19.698,188.502,19.698L188.502,19.698z M188.517,18.672c-0.897,0-1.533-0.723-1.533-1.591v-0.015
	c0-0.868,0.622-1.577,1.519-1.577s1.533,0.724,1.533,1.591v0.015C190.036,17.963,189.415,18.672,188.517,18.672L188.517,18.672z"/>
<g id="XMLID_1_">
	<g>
		<path fill="#FFFFFF" d="M43.203,5.793c-0.558,0-1.117,0-1.676,0c0-1.82,0-3.641,0-5.461c-0.001-0.038-0.004-0.077,0.027-0.082
			c1.849,0,3.695,0,5.542,0c0,1.244,0,2.487,0,3.731c-1.244,0.063-2.604,0.008-3.894,0.026C43.203,4.603,43.203,5.198,43.203,5.793z
			"/>
		<path fill="#FFFFFF" d="M45.419,13.66c-0.594,0-1.189,0-1.783,0c0-0.73,0-1.46,0-2.19c-0.002-0.038-0.005-0.076,0.027-0.081
			c1.838,0,3.675,0,5.515,0c0,1.847,0,3.695,0,5.543c-1.252,0-2.505,0-3.759,0C45.419,15.84,45.419,14.75,45.419,13.66z"/>
		<path fill="#FFFFFF" d="M47.096,23.853c-1.847,0-3.695,0-5.542,0c0-1.821,0-3.641,0-5.461c-0.001-0.039-0.004-0.077,0.027-0.081
			c1.839,0,3.677,0,5.516,0C47.096,20.158,47.096,22.006,47.096,23.853z"/>
		<path fill="#FFFFFF" d="M45.366,6.738c-0.522-0.063-1.163-0.008-1.73-0.026c0-0.722,0-1.443,0-2.163
			c-0.002-0.039-0.005-0.077,0.027-0.082c1.838,0,3.675,0,5.515,0c0,1.857,0,3.712,0,5.569c-1.271,0-2.541,0-3.812,0
			C45.366,8.938,45.366,7.837,45.366,6.738z"/>
		<path fill="#FFFFFF" d="M39.445,14.147c1.848,0,3.695,0,5.543,0c0.001,1.239-0.002,2.576,0,3.73
			c-1.225,0.063-2.568,0.01-3.839,0.027c-0.064,0.541-0.009,1.198-0.027,1.785c-0.568,0-1.136,0-1.704,0c0-1.821,0-3.641,0-5.461
			C39.415,14.189,39.414,14.151,39.445,14.147z"/>
		<path fill="#FFFFFF" d="M39.417,7.199c1.839,0,3.678,0,5.516,0c0,1.252,0,2.505,0,3.757c-0.558,0-1.117,0-1.675,0
			c-0.063,0.542-0.01,1.199-0.027,1.786c-1.12,0.061-2.584,0.01-3.839,0.026c0-1.829,0-3.658,0-5.488
			C39.389,7.241,39.387,7.204,39.417,7.199z"/>
	</g>
	<g>
	</g>
</g>
</svg>
